<?xml version="1.0" standalone="no"?>
<!DOCTYPE svg PUBLIC "-//W3C//DTD SVG 20010904//EN"
 "http://www.w3.org/TR/2001/REC-SVG-20010904/DTD/svg10.dtd">
<svg version="1.0" xmlns="http://www.w3.org/2000/svg"
 width="1200.000000pt" height="1200.000000pt" viewBox="0 0 1200.000000 1200.000000"
 preserveAspectRatio="xMidYMid meet">
<metadata>
Created by potrace 1.14, written by Peter Selinger 2001-2017
</metadata>
<g transform="translate(0.000000,1200.000000) scale(0.100000,-0.100000)"
fill="#000000" stroke="none">
<path d="M4124 10135 c-91 -26 -146 -66 -323 -240 -96 -93 -218 -213 -271
-265 -54 -52 -247 -241 -430 -420 -183 -179 -369 -361 -414 -405 -46 -44 -241
-235 -435 -425 -195 -190 -395 -385 -446 -435 -51 -49 -242 -237 -426 -417
-184 -179 -391 -382 -460 -450 -70 -68 -272 -265 -449 -438 -359 -350 -385
-377 -412 -420 -70 -115 -76 -270 -15 -394 37 -74 60 -97 760 -779 73 -71 274
-267 447 -437 173 -169 371 -363 440 -430 69 -67 264 -258 433 -423 170 -166
355 -347 411 -402 57 -55 253 -247 437 -427 184 -179 390 -381 459 -448 69
-67 221 -216 339 -331 257 -252 298 -277 449 -284 152 -6 235 33 389 182 61
59 257 251 435 425 178 174 377 369 443 433 66 65 254 248 418 409 164 160
372 363 462 451 265 259 729 712 845 825 59 58 263 258 455 445 701 685 757
743 784 810 40 99 37 240 -6 335 -31 66 -43 78 -403 430 -48 47 -244 239 -436
427 -475 465 -503 491 -549 522 -123 84 -304 93 -444 21 -94 -48 -187 -166
-215 -271 -28 -112 0 -253 68 -342 18 -24 99 -108 181 -188 554 -542 542 -530
577 -604 30 -65 33 -78 33 -170 0 -94 -2 -105 -34 -170 -40 -80 -55 -96 -1101
-1115 -63 -62 -254 -248 -423 -413 -170 -166 -359 -351 -420 -411 -62 -60
-256 -250 -433 -423 -176 -172 -338 -326 -360 -342 -91 -66 -234 -92 -348 -63
-55 13 -141 56 -171 85 -14 13 -464 451 -700 682 -483 472 -775 757 -899 878
-77 77 -273 268 -435 425 -631 616 -635 621 -672 697 -31 65 -34 77 -34 170 0
93 2 105 33 170 36 77 36 77 777 800 186 182 386 377 445 435 458 447 826 807
1009 986 119 117 272 267 341 334 69 67 149 138 177 157 68 46 160 71 249 68
79 -2 98 -7 173 -43 59 -28 88 -54 331 -291 178 -174 235 -213 347 -235 209
-42 435 96 496 302 10 32 15 79 13 124 -4 90 -9 108 -43 178 -29 59 -56 87
-663 680 -166 162 -321 313 -344 336 -56 55 -121 98 -181 119 -66 23 -196 28
-261 10z"/>
<path d="M7670 10143 c-14 -3 -56 -20 -95 -38 -58 -28 -97 -60 -232 -192 -144
-141 -428 -418 -863 -843 -285 -278 -785 -767 -890 -870 -59 -58 -250 -244
-425 -415 -339 -331 -433 -423 -880 -860 -663 -648 -691 -677 -718 -735 -34
-72 -45 -123 -41 -196 3 -77 19 -137 52 -194 28 -47 80 -100 618 -625 180
-176 371 -363 424 -415 54 -52 146 -142 206 -200 151 -146 231 -183 384 -175
119 5 214 50 297 138 33 35 89 125 85 134 -1 2 5 21 13 43 9 25 13 70 11 123
-3 72 -8 94 -39 158 -33 69 -55 93 -328 359 -414 404 -422 412 -456 477 -74
138 -60 318 32 433 29 36 237 240 1005 990 87 85 472 462 908 888 606 593 757
739 781 755 144 98 353 96 491 -4 23 -17 112 -99 197 -182 85 -84 206 -201
267 -262 62 -60 257 -250 432 -422 175 -172 384 -376 464 -454 80 -77 291
-284 470 -459 179 -175 377 -368 440 -430 371 -361 429 -422 457 -478 15 -31
28 -59 29 -62 0 -3 4 -21 8 -40 9 -37 10 -131 2 -165 -10 -44 -36 -105 -59
-141 -13 -22 -174 -185 -357 -364 -183 -179 -381 -372 -439 -429 -206 -201
-704 -688 -846 -826 -78 -77 -286 -280 -461 -451 -176 -172 -375 -367 -444
-434 -141 -138 -184 -171 -262 -200 -106 -39 -247 -29 -349 26 -53 29 -76 50
-326 295 -159 155 -206 189 -307 220 -41 12 -143 15 -186 6 -14 -3 -35 -8 -46
-11 -44 -9 -128 -59 -175 -103 -51 -48 -98 -121 -118 -185 -18 -55 -20 -158
-4 -218 31 -120 -12 -74 852 -920 260 -254 278 -268 389 -310 52 -20 175 -21
240 -1 96 28 140 58 271 186 69 68 183 179 252 247 70 67 281 274 469 458 189
184 392 382 451 440 167 164 741 725 1294 1265 169 165 369 361 445 435 76 74
285 279 465 455 419 409 400 389 438 465 30 61 32 71 32 175 0 104 -2 114 -33
176 -36 75 -48 88 -541 569 -178 173 -381 371 -451 440 -335 328 -775 757
-890 870 -71 69 -269 263 -442 432 -172 168 -377 368 -455 445 -134 131 -632
618 -863 843 -279 273 -309 300 -363 324 -90 42 -193 55 -287 39z"/>
</g>
</svg>
